<?xml version="1.0" standalone="no"?>
<!DOCTYPE svg PUBLIC "-//W3C//DTD SVG 20010904//EN"
 "http://www.w3.org/TR/2001/REC-SVG-20010904/DTD/svg10.dtd">
<svg version="1.0" xmlns="http://www.w3.org/2000/svg"
 width="960.000000pt" height="720.000000pt" viewBox="0 0 960.000000 720.000000"
 preserveAspectRatio="xMidYMid meet">
<metadata>
Created by potrace 1.16, written by Peter Selinger 2001-2019
</metadata>
<g transform="translate(0.000000,720.000000) scale(0.100000,-0.100000)"
fill="#000000" stroke="none">
<path d="M4150 5944 c-155 -19 -270 -39 -366 -64 -842 -217 -1480 -937 -1609
-1813 -84 -578 66 -1184 409 -1642 351 -471 832 -766 1402 -862 152 -25 505
-25 655 0 312 52 607 167 856 334 924 617 1248 1840 751 2837 -33 66 -78 149
-101 185 -112 179 -306 402 -469 537 -283 237 -648 402 -1022 465 -116 19
-424 33 -506 23z m331 -334 c579 -59 1083 -375 1392 -875 l37 -60 -509 -3
-509 -2 -76 41 c-107 58 -233 98 -365 117 -208 29 -438 -13 -631 -115 l-85
-45 -509 -14 c-280 -8 -512 -12 -514 -9 -7 7 81 148 151 239 185 244 406 424
677 555 301 145 621 203 941 171z m-66 -1110 c168 -24 293 -88 420 -215 142
-141 210 -295 222 -500 20 -350 -199 -662 -537 -767 -63 -19 -96 -23 -210 -22
-117 0 -145 3 -212 26 -125 42 -203 91 -303 192 -138 139 -208 291 -221 486
-34 473 380 865 841 800z m1645 -162 c0 -2 14 -57 30 -123 82 -323 78 -682
-11 -987 l-20 -68 -418 0 -418 0 43 83 c164 317 164 701 -1 1015 l-44 82 420
0 c230 0 419 -1 419 -2z m-2660 -12 c0 -3 -20 -45 -45 -95 -151 -303 -150
-663 4 -973 l48 -98 -418 0 -418 0 -16 56 c-74 255 -92 560 -50 824 16 96 52
251 62 260 2 3 181 10 396 16 216 6 402 11 415 12 12 1 22 0 22 -2z m398
-1531 c80 -48 233 -102 345 -121 226 -40 518 13 700 126 l48 30 514 0 514 0
-30 -52 c-91 -155 -252 -347 -393 -468 -544 -467 -1303 -572 -1946 -268 -319
150 -572 375 -779 692 -28 43 -51 82 -51 87 0 5 226 9 509 9 l510 0 59 -35z"/>
</g>
</svg>
