<?xml version="1.0" standalone="no"?>
<!DOCTYPE svg PUBLIC "-//W3C//DTD SVG 20010904//EN"
 "http://www.w3.org/TR/2001/REC-SVG-20010904/DTD/svg10.dtd">
<svg version="1.0" xmlns="http://www.w3.org/2000/svg"
 width="960.000000pt" height="720.000000pt" viewBox="0 0 960.000000 720.000000"
 preserveAspectRatio="xMidYMid meet">
<metadata>
Created by potrace 1.16, written by Peter Selinger 2001-2019
</metadata>
<g transform="translate(0.000000,720.000000) scale(0.100000,-0.100000)"
fill="#000000" stroke="none">
<path d="M4110 5839 c-563 -58 -1083 -356 -1438 -826 -310 -410 -462 -951
-411 -1469 45 -470 236 -898 551 -1238 344 -370 766 -589 1261 -652 157 -20
429 -15 572 11 590 105 1080 433 1408 940 114 177 229 458 277 673 118 536 25
1106 -258 1572 -120 197 -342 445 -517 577 -423 318 -935 464 -1445 412z m492
-144 c315 -48 604 -170 858 -361 189 -142 391 -366 506 -560 45 -75 104 -189
104 -199 0 -3 -271 -5 -603 -5 l-604 0 -76 44 c-150 85 -351 133 -518 122
-161 -10 -336 -63 -451 -138 l-48 -30 -605 -16 c-333 -8 -607 -13 -610 -10
-17 16 108 240 210 377 340 457 810 729 1365 790 110 13 348 6 472 -14z m-78
-1115 c153 -39 281 -115 398 -238 166 -174 247 -394 235 -637 -19 -374 -265
-684 -624 -787 -102 -29 -322 -32 -423 -5 -160 44 -324 149 -441 285 -63 72
-152 253 -173 350 -66 299 14 591 219 797 101 102 133 126 220 169 192 94 392
117 589 66z m1625 -202 c116 -356 131 -767 42 -1118 -17 -63 -36 -133 -44
-155 l-14 -40 -557 -3 -556 -2 48 59 c287 357 293 891 13 1241 -20 25 -42 53
-50 63 -13 16 14 17 542 17 l555 0 21 -62z m-2582 1 c-79 -90 -159 -247 -192
-375 -37 -146 -42 -259 -20 -405 27 -179 93 -330 208 -476 l49 -63 -556 0
-555 0 -30 93 c-90 285 -113 619 -61 922 20 117 63 288 80 315 6 10 100 16
432 25 232 7 483 13 556 13 l134 2 -45 -51z m304 -1507 c167 -85 262 -107 454
-106 187 1 261 19 430 104 l120 60 603 0 603 0 -61 -117 c-146 -283 -381 -544
-650 -725 -557 -373 -1294 -420 -1895 -121 -377 188 -694 504 -884 881 l-41
82 603 0 603 0 115 -58z"/>
</g>
</svg>
