<?xml version="1.0" standalone="no"?>
<!DOCTYPE svg PUBLIC "-//W3C//DTD SVG 20010904//EN"
 "http://www.w3.org/TR/2001/REC-SVG-20010904/DTD/svg10.dtd">
<svg version="1.0" xmlns="http://www.w3.org/2000/svg"
 width="214.000000pt" height="230.000000pt" viewBox="0 0 214.000000 230.000000"
 preserveAspectRatio="xMidYMid meet">
<metadata>
Created by potrace 1.16, written by Peter Selinger 2001-2019
</metadata>
<g transform="translate(0.000000,230.000000) scale(0.100000,-0.100000)"
fill="#000000" stroke="none">
<path d="M1035 2118 c-3 -13 -4 -144 -3 -292 3 -243 5 -270 21 -280 12 -8 22
-8 35 0 15 10 17 37 20 289 2 196 -1 282 -9 291 -19 23 -58 17 -64 -8z"/>
<path d="M892 1874 c-269 -72 -474 -287 -535 -561 -5 -21 -1 -23 33 -23 38 0
39 0 55 58 60 206 241 387 448 447 57 16 57 16 57 56 0 21 -1 39 -2 38 -2 0
-27 -7 -56 -15z"/>
<path d="M1190 1850 c0 -38 0 -39 58 -55 206 -60 387 -241 447 -447 16 -58 17
-58 55 -58 34 0 38 2 33 23 -62 278 -283 505 -551 565 l-42 10 0 -38z"/>
<path d="M1019 1421 c-59 -12 -128 -59 -159 -108 -100 -158 -20 -354 161 -392
97 -21 214 28 263 111 56 96 53 195 -7 285 -52 77 -166 123 -258 104z"/>
<path d="M113 1203 c-17 -6 -16 -48 1 -62 9 -8 95 -11 291 -9 252 3 279 5 289
21 8 12 8 22 0 35 -10 15 -36 17 -290 19 -153 1 -285 -1 -291 -4z"/>
<path d="M1452 1198 c-16 -16 -15 -43 2 -57 9 -8 95 -11 291 -9 252 3 279 5
289 21 8 12 8 22 0 35 -10 15 -37 17 -290 20 -209 2 -283 -1 -292 -10z"/>
<path d="M362 1008 c60 -268 287 -489 566 -551 20 -5 22 -1 22 33 0 38 0 39
-57 55 -207 60 -388 241 -448 448 -16 57 -17 57 -55 57 l-38 0 10 -42z"/>
<path d="M1695 993 c-60 -207 -241 -388 -447 -448 -58 -16 -58 -17 -58 -55 l0
-38 42 10 c268 60 489 287 551 566 5 20 1 22 -33 22 -38 0 -39 0 -55 -57z"/>
<path d="M1041 786 c-8 -9 -11 -95 -9 -291 3 -252 5 -279 21 -289 12 -8 22 -8
35 0 15 10 17 37 20 289 2 287 0 305 -38 305 -10 0 -23 -6 -29 -14z"/>
</g>
</svg>
