<?xml version="1.0" standalone="no"?>
<!DOCTYPE svg PUBLIC "-//W3C//DTD SVG 20010904//EN"
 "http://www.w3.org/TR/2001/REC-SVG-20010904/DTD/svg10.dtd">
<svg version="1.0" xmlns="http://www.w3.org/2000/svg"
 width="204.000000pt" height="300.000000pt" viewBox="0 0 204.000000 300.000000"
 preserveAspectRatio="xMidYMid meet">
<metadata>
Created by potrace 1.16, written by Peter Selinger 2001-2019
</metadata>
<g transform="translate(0.000000,300.000000) scale(0.100000,-0.100000)"
fill="#000000" stroke="none">
<path d="M805 2986 c-194 -45 -383 -154 -531 -308 -84 -88 -120 -138 -178
-255 -67 -134 -88 -210 -93 -344 -12 -283 120 -752 255 -901 66 -74 62 -73
469 -73 199 0 365 -4 370 -8 4 -5 8 -101 8 -214 0 -185 -2 -206 -18 -218 -19
-14 -53 -10 -65 9 -4 6 -9 72 -12 146 l-5 135 -40 13 c-57 19 -254 26 -363 13
-115 -14 -170 -35 -178 -67 -8 -31 87 -213 191 -365 128 -186 399 -548 411
-549 15 0 188 204 305 359 348 465 598 927 644 1186 27 159 20 196 -52 251
-65 50 -115 56 -464 63 -246 5 -320 9 -332 20 -15 12 -17 43 -17 267 0 216 2
255 16 268 19 19 35 20 57 4 14 -11 16 -42 19 -215 2 -133 7 -206 14 -213 20
-20 207 -30 394 -20 249 13 360 40 414 99 48 53 -33 312 -157 496 -61 90 -192
220 -279 276 -86 55 -190 100 -306 131 -100 27 -384 35 -477 14z m412 -11
c325 -62 570 -249 721 -550 62 -125 105 -302 83 -344 -30 -56 -170 -90 -416
-100 -204 -8 -359 -1 -377 17 -10 9 -14 68 -15 210 -2 188 -3 198 -24 215 -28
22 -44 22 -69 -3 -19 -19 -20 -33 -20 -273 0 -245 1 -255 21 -273 19 -18 46
-19 343 -25 330 -7 361 -10 433 -48 79 -40 94 -92 69 -240 -22 -125 -54 -218
-136 -386 -152 -312 -446 -756 -690 -1040 -127 -148 -93 -158 -272 82 -85 114
-186 253 -225 308 -76 107 -185 297 -204 354 -11 31 -9 36 10 52 31 25 109 40
251 46 127 6 262 -8 287 -28 9 -8 13 -51 15 -141 3 -129 3 -131 30 -151 25
-19 28 -19 52 -4 15 10 28 30 31 50 9 46 2 394 -8 404 -5 4 -174 8 -375 8
-411 0 -411 0 -473 74 -39 47 -111 194 -144 296 -97 297 -128 571 -85 739 25
98 93 244 159 338 130 189 356 344 584 403 113 29 318 34 444 10z"/>
</g>
</svg>
